<svg width="1112" height="608" viewBox="0 0 1112 608" fill="none" xmlns="http://www.w3.org/2000/svg">
<path d="M612.624 -301.116L792.601 67.672C822.913 129.782 797.104 204.691 734.957 234.984L365.948 414.854C303.8 445.147 228.847 419.354 198.536 357.243L18.5585 -11.5445C-11.753 -73.6549 14.0553 -148.563 76.2029 -178.856L445.212 -358.726C507.359 -389.019 582.312 -363.226 612.624 -301.116Z" fill="url(#paint0_linear_1_2720)"/>
<path d="M623.693 -195.519L834.874 84.5608C870.44 131.73 861.011 198.783 813.813 234.328L533.566 445.382C486.368 480.927 419.275 471.504 383.709 424.334L172.528 144.255C136.962 97.0852 146.391 30.0321 193.589 -5.51253L473.836 -216.567C521.034 -252.112 588.127 -242.688 623.693 -195.519Z" fill="url(#paint1_linear_1_2720)"/>
<path d="M650.211 -108.724L873.094 91.8408C910.631 125.619 913.662 183.414 879.863 220.929L679.178 443.68C645.379 481.195 587.549 484.224 550.012 450.445L327.129 249.88C289.591 216.101 286.56 158.306 320.359 120.791L521.045 -101.959C554.844 -139.474 612.673 -142.503 650.211 -108.724Z" fill="url(#paint2_linear_1_2720)"/>
<path d="M686.613 -40.2262L906.344 91.723C943.349 113.944 955.323 161.939 933.088 198.922L801.059 418.522C778.825 455.505 730.801 467.471 693.797 445.25L474.065 313.301C437.06 291.079 425.087 243.085 447.321 206.102L579.35 -13.4985C601.585 -50.4812 649.608 -62.4476 686.613 -40.2262Z" fill="url(#paint3_linear_1_2720)"/>
<path d="M728.348 11.3106L934.224 86.1989C968.899 98.812 986.778 137.13 974.157 171.784L899.224 377.538C886.604 412.192 848.263 430.06 813.588 417.447L607.711 342.558C573.036 329.945 555.157 291.628 567.778 256.973L642.711 51.2196C655.332 16.5654 693.673 -1.30245 728.348 11.3106Z" fill="url(#paint4_linear_1_2720)"/>
<path d="M771.757 47.745L956.714 77.0219C987.864 81.9525 1009.12 111.185 1004.18 142.316L974.887 327.163C969.954 358.293 940.703 379.533 909.554 374.602L724.596 345.325C693.447 340.394 672.196 311.161 677.129 280.031L706.423 95.1838C711.357 64.0534 740.607 42.8144 771.757 47.745Z" fill="url(#paint5_linear_1_2720)"/>
<path d="M814.134 71.2405L974.09 65.658C1001.03 64.7179 1023.63 85.7806 1024.57 112.703L1030.16 272.564C1031.1 299.487 1010.02 322.074 983.083 323.014L823.126 328.597C796.188 329.537 773.587 308.474 772.646 281.551L767.06 121.69C766.119 94.7677 787.195 72.1806 814.134 71.2405Z" fill="url(#paint6_linear_1_2720)"/>
<path d="M850.363 87.2881L982.505 51.9021C1004.76 45.9431 1027.63 59.1408 1033.59 81.3801L1069 213.442C1074.96 235.682 1061.76 258.541 1039.5 264.5L907.363 299.886C885.11 305.845 862.237 292.647 856.274 270.408L820.867 138.346C814.904 116.106 828.11 93.2471 850.363 87.2881Z" fill="url(#paint7_linear_1_2720)"/>
<path d="M888.654 88.3766L995.468 40.8486C1013.46 32.8447 1034.53 40.9296 1042.54 58.9067L1090.1 165.656C1098.1 183.633 1090.01 204.695 1072.03 212.699L965.213 260.227C947.225 268.231 926.151 260.146 918.142 242.169L870.585 135.419C862.577 117.442 870.666 96.3805 888.654 88.3766Z" fill="url(#paint8_linear_1_2720)"/>
<path d="M918.834 86.2776L1000.7 28.9903C1014.48 19.3433 1033.48 22.6916 1043.14 36.469L1100.46 118.284C1110.11 132.061 1106.76 151.05 1092.98 160.697L1011.11 217.985C997.326 227.632 978.325 224.283 968.672 210.506L911.351 128.691C901.698 114.914 905.048 95.9246 918.834 86.2776Z" fill="url(#paint9_linear_1_2720)"/>
<path d="M943.819 79.6004L1003.15 18.1964C1013.14 7.85553 1029.63 7.56757 1039.98 17.5536L1101.42 76.8511C1111.77 86.8371 1112.05 103.315 1102.06 113.656L1042.73 175.06C1032.74 185.401 1016.25 185.689 1005.9 175.703L944.462 116.405C934.115 106.419 933.827 89.9412 943.819 79.6004Z" fill="url(#paint10_linear_1_2720)"/>
<path d="M963.688 69.9196L1003.45 8.73523C1010.14 -1.57056 1023.93 -4.49955 1034.24 2.19311L1095.46 41.9264C1105.77 48.6191 1108.71 62.3992 1102.01 72.7049L1062.25 133.889C1055.55 144.195 1041.77 147.124 1031.45 140.431L970.234 100.698C959.922 94.0052 956.991 80.2254 963.688 69.9196Z" fill="url(#paint11_linear_1_2720)"/>
<path d="M978.773 58.5683L1002.15 0.745105C1006.09 -8.99104 1017.17 -13.6948 1026.92 -9.76112L1084.77 13.601C1094.51 17.5346 1099.22 28.616 1095.29 38.3521L1071.91 96.1753C1067.97 105.911 1056.89 110.615 1047.14 106.682L989.286 83.3194C979.544 79.3858 974.837 68.3045 978.773 58.5683Z" fill="url(#paint12_linear_1_2720)"/>
<path d="M989.586 46.5792L999.762 -5.7416C1001.48 -14.5519 1010.01 -20.3054 1018.83 -18.5928L1071.18 -8.42269C1079.99 -6.71014 1085.75 1.81989 1084.04 10.6302L1073.86 62.951C1072.15 71.7613 1063.61 77.5154 1054.8 75.8028L1002.45 65.6327C993.63 63.9201 987.872 55.3895 989.586 46.5792Z" fill="url(#paint13_linear_1_2720)"/>
<path d="M997.213 34.9479L997.213 -10.9445C997.213 -18.6723 1003.35 -24.937 1010.92 -24.937L1055.89 -24.937C1063.46 -24.937 1069.6 -18.6723 1069.6 -10.9445L1069.6 34.9479C1069.6 42.6757 1063.46 48.9403 1055.89 48.9403L1010.92 48.9403C1003.35 48.9403 997.213 42.6757 997.213 34.9479Z" fill="url(#paint14_linear_1_2720)"/>
<defs>
<linearGradient id="paint0_linear_1_2720" x1="-36.3251" y1="-124.005" x2="557.603" y2="-413.857" gradientUnits="userSpaceOnUse">
<stop stop-color="#631BF3" stop-opacity="0"/>
<stop offset="0.4" stop-color="#EB30FF" stop-opacity="0.3"/>
<stop offset="0.7" stop-color="#FF408F"/>
<stop offset="1" stop-color="#FF9419"/>
</linearGradient>
<linearGradient id="paint1_linear_1_2720" x1="108.13" y1="58.8468" x2="559.099" y2="-281.186" gradientUnits="userSpaceOnUse">
<stop stop-color="#631BF3" stop-opacity="0"/>
<stop offset="0.4" stop-color="#EB30FF" stop-opacity="0.3"/>
<stop offset="0.7" stop-color="#FF408F"/>
<stop offset="1" stop-color="#FF9419"/>
</linearGradient>
<linearGradient id="paint2_linear_1_2720" x1="259.161" y1="188.718" x2="582.029" y2="-170.078" gradientUnits="userSpaceOnUse">
<stop stop-color="#631BF3" stop-opacity="0"/>
<stop offset="0.4" stop-color="#EB30FF" stop-opacity="0.3"/>
<stop offset="0.7" stop-color="#FF408F"/>
<stop offset="1" stop-color="#FF9419"/>
</linearGradient>
<linearGradient id="paint3_linear_1_2720" x1="407.062" y1="273.065" x2="619.422" y2="-80.5739" gradientUnits="userSpaceOnUse">
<stop stop-color="#631BF3" stop-opacity="0"/>
<stop offset="0.4" stop-color="#EB30FF" stop-opacity="0.3"/>
<stop offset="0.7" stop-color="#FF408F"/>
<stop offset="1" stop-color="#FF9419"/>
</linearGradient>
<linearGradient id="paint4_linear_1_2720" x1="544.926" y1="319.72" x2="665.435" y2="-11.5738" gradientUnits="userSpaceOnUse">
<stop stop-color="#631BF3" stop-opacity="0"/>
<stop offset="0.4" stop-color="#EB30FF" stop-opacity="0.3"/>
<stop offset="0.7" stop-color="#FF408F"/>
<stop offset="1" stop-color="#FF9419"/>
</linearGradient>
<linearGradient id="paint5_linear_1_2720" x1="668.196" y1="336.397" x2="715.301" y2="38.8087" gradientUnits="userSpaceOnUse">
<stop stop-color="#631BF3" stop-opacity="0"/>
<stop offset="0.4" stop-color="#EB30FF" stop-opacity="0.3"/>
<stop offset="0.7" stop-color="#FF408F"/>
<stop offset="1" stop-color="#FF9419"/>
</linearGradient>
<linearGradient id="paint6_linear_1_2720" x1="774.349" y1="330.299" x2="765.367" y2="72.9424" gradientUnits="userSpaceOnUse">
<stop stop-color="#631BF3" stop-opacity="0"/>
<stop offset="0.4" stop-color="#EB30FF" stop-opacity="0.3"/>
<stop offset="0.7" stop-color="#FF408F"/>
<stop offset="1" stop-color="#FF9419"/>
</linearGradient>
<linearGradient id="paint7_linear_1_2720" x1="867.07" y1="310.676" x2="810.134" y2="98.0609" gradientUnits="userSpaceOnUse">
<stop stop-color="#631BF3" stop-opacity="0"/>
<stop offset="0.4" stop-color="#EB30FF" stop-opacity="0.3"/>
<stop offset="0.7" stop-color="#FF408F"/>
<stop offset="1" stop-color="#FF9419"/>
</linearGradient>
<linearGradient id="paint8_linear_1_2720" x1="932.643" y1="274.72" x2="856.161" y2="102.835" gradientUnits="userSpaceOnUse">
<stop stop-color="#631BF3" stop-opacity="0"/>
<stop offset="0.4" stop-color="#EB30FF" stop-opacity="0.3"/>
<stop offset="0.7" stop-color="#FF408F"/>
<stop offset="1" stop-color="#FF9419"/>
</linearGradient>
<linearGradient id="paint9_linear_1_2720" x1="986.15" y1="235.452" x2="893.947" y2="103.693" gradientUnits="userSpaceOnUse">
<stop stop-color="#631BF3" stop-opacity="0"/>
<stop offset="0.4" stop-color="#EB30FF" stop-opacity="0.3"/>
<stop offset="0.7" stop-color="#FF408F"/>
<stop offset="1" stop-color="#FF9419"/>
</linearGradient>
<linearGradient id="paint10_linear_1_2720" x1="1024.64" y1="193.784" x2="925.784" y2="98.265" gradientUnits="userSpaceOnUse">
<stop stop-color="#631BF3" stop-opacity="0"/>
<stop offset="0.4" stop-color="#EB30FF" stop-opacity="0.3"/>
<stop offset="0.7" stop-color="#FF408F"/>
<stop offset="1" stop-color="#FF9419"/>
</linearGradient>
<linearGradient id="paint11_linear_1_2720" x1="1050.13" y1="152.549" x2="951.598" y2="88.5259" gradientUnits="userSpaceOnUse">
<stop stop-color="#631BF3" stop-opacity="0"/>
<stop offset="0.4" stop-color="#EB30FF" stop-opacity="0.3"/>
<stop offset="0.7" stop-color="#FF408F"/>
<stop offset="1" stop-color="#FF9419"/>
</linearGradient>
<linearGradient id="paint12_linear_1_2720" x1="1064.78" y1="113.804" x2="971.662" y2="76.1583" gradientUnits="userSpaceOnUse">
<stop stop-color="#631BF3" stop-opacity="0"/>
<stop offset="0.4" stop-color="#EB30FF" stop-opacity="0.3"/>
<stop offset="0.7" stop-color="#FF408F"/>
<stop offset="1" stop-color="#FF9419"/>
</linearGradient>
<linearGradient id="paint13_linear_1_2720" x1="1070.76" y1="78.9036" x2="986.487" y2="62.5129" gradientUnits="userSpaceOnUse">
<stop stop-color="#631BF3" stop-opacity="0"/>
<stop offset="0.4" stop-color="#EB30FF" stop-opacity="0.3"/>
<stop offset="0.7" stop-color="#FF408F"/>
<stop offset="1" stop-color="#FF9419"/>
</linearGradient>
<linearGradient id="paint14_linear_1_2720" x1="1069.6" y1="48.9403" x2="997.213" y2="48.9403" gradientUnits="userSpaceOnUse">
<stop stop-color="#631BF3" stop-opacity="0"/>
<stop offset="0.4" stop-color="#EB30FF" stop-opacity="0.3"/>
<stop offset="0.7" stop-color="#FF408F"/>
<stop offset="1" stop-color="#FF9419"/>
</linearGradient>
</defs>
</svg>
